<?xml version="1.0" encoding="UTF-8" standalone="no"?>
<svg
   width="32in"
   height="20in"
   viewBox="0 0 31.999999 20"
   version="1.1"
   preserveAspectRatio="xMidYMid"
   id="svg37"
   sodipodi:docname="editted.svg"
   inkscape:version="1.2.2 (732a01da63, 2022-12-09)"
   xmlns:inkscape="http://www.inkscape.org/namespaces/inkscape"
   xmlns:sodipodi="http://sodipodi.sourceforge.net/DTD/sodipodi-0.dtd"
   xmlns:xlink="http://www.w3.org/1999/xlink"
   xmlns="http://www.w3.org/2000/svg"
   xmlns:svg="http://www.w3.org/2000/svg">
  <defs
     id="defs41">
    <rect
       x="1327.3625"
       y="231.0318"
       width="219.15547"
       height="128.12149"
       id="rect37009" />
    <rect
       x="1375.1188"
       y="217.19288"
       width="570.45841"
       height="310.08863"
       id="rect35472" />
    <rect
       x="1375.1188"
       y="211.95932"
       width="47.10207"
       height="41.868507"
       id="rect35466" />
    <color-profile
       name="Agfa-:-Swop-Standard"
       xlink:href="file:///C:/WINDOWS/system32/spool/drivers/color/RSWOP.icm"
       id="color-profile37045" />
    <color-profile
       name="sRGB-IEC61966-2.1"
       xlink:href="file:///C:/WINDOWS/system32/spool/drivers/color/sRGB%20Color%20Space%20Profile.icm"
       id="color-profile37047" />
  </defs>
  <sodipodi:namedview
     id="namedview39"
     pagecolor="#e4e4e4"
     bordercolor="#000000"
     borderopacity="1"
     inkscape:showpageshadow="0"
     inkscape:pageopacity="0"
     inkscape:pagecheckerboard="0"
     inkscape:deskcolor="#e4e4e4"
     inkscape:document-units="in"
     showgrid="false"
     inkscape:zoom="0.38214881"
     inkscape:cx="656.8122"
     inkscape:cy="1020.5449"
     inkscape:window-width="1920"
     inkscape:window-height="1009"
     inkscape:window-x="-8"
     inkscape:window-y="-8"
     inkscape:window-maximized="1"
     inkscape:current-layer="svg37" />
  <g
     id="svgGroup"
     stroke-linecap="round"
     fill-rule="evenodd"
     font-size="12px"
     stroke="#000"
     stroke-width="0.25mm"
     fill="none"
     style="fill:none;stroke:#ff0000;stroke-width:0.0003937;stroke-dasharray:none;stroke-opacity:1"
     transform="translate(1.678674,-2.0693206)">
    <path
       d="m -0.65533019,15.472107 v 0.76 h 0.118 v 1.239 h -0.118 v 1.239 h 0.118 v 1.239 h -0.118 v 0.759 H 1.1036698 v -0.118 h 1.24 v 0.118 h 1.239 v -0.118 h 1.239 v 0.118 h 1.239 0.52 v -0.759 h -0.118 v -1.239 h 0.118 v -1.239 h -0.118 v -1.239 h 0.118 v -0.76 h -1.759 v 0.118 h -1.239 v -0.118 h -1.239 v 0.118 h -1.24 v -0.118 h -1.23899999 z"
       id="front_outsideCutPath"
       stroke="#FF0000"
       stroke-width="0.1"
       style="fill:none;stroke:#ff0000;stroke-width:0.0003937;stroke-dasharray:none;stroke-opacity:1"
       vector-effect="non-scaling-stroke" />
    <path
       d="m 6.8236698,15.472107 v 0.76 h -0.118 v 1.239 h 0.118 v 1.239 h -0.118 v 1.239 h 0.118 v 0.759 h 1.163 v -0.118 h 1.239 v 0.118 H 10.46567 v -0.118 h 1.238 v 0.118 h 1.24 v -0.118 h 1.238 v 0.118 h 1.24 v -0.118 h 1.239 v 0.118 h 1.163 v -0.759 h 0.118 v -1.239 h -0.118 v -1.239 h 0.118 v -1.239 h -0.118 v -0.76 h -1.163 v 0.118 h -1.239 v -0.118 h -1.24 v 0.118 h -1.238 v -0.118 h -1.24 v 0.118 h -1.238 v -0.118 H 9.2256698 v 0.118 h -1.239 v -0.118 z"
       id="left_outsideCutPath"
       stroke="#FF0000"
       stroke-width="0.1"
       style="fill:none;stroke:#ff0000;stroke-width:0.0003937;stroke-dasharray:none;stroke-opacity:1"
       vector-effect="non-scaling-stroke" />
    <path
       d="m 10.691112,9.7483359 1.163999,-0.00172 1.72e-4,0.1179999 1.238998,-0.00182 -1.72e-4,-0.118 1.239,-0.00182 1.72e-4,0.118 1.238999,-0.00182 -1.73e-4,-0.118 1.238999,-0.00182 1.71e-4,0.118 1.239,-0.00182 -1.73e-4,-0.118 1.238999,-0.00182 1.72e-4,0.117999 1.238998,-0.00182 -1.71e-4,-0.1180001 1.162999,-0.00173 -0.0024,-1.641998 0.117999,-1.724e-4 -0.0018,-1.238999 -0.118001,1.724e-4 -0.0018,-1.2389989 0.118001,-1.714e-4 -0.0018,-1.2389989 -0.118,1.72e-4 -0.0018,-1.2389987 -5.83e-4,-0.4019996 -1.162998,0.0017 -1.73e-4,-0.118 -1.238999,0.0018 1.72e-4,0.1179999 -1.238998,0.0018 -1.73e-4,-0.1179999 -1.238998,0.0018 1.71e-4,0.1179998 -1.238997,0.0018 -1.73e-4,-0.1179998 -1.238999,0.0018 1.72e-4,0.1179999 -1.238998,0.0018 -1.73e-4,-0.1179999 -1.238998,0.0018 1.72e-4,0.118 -1.163999,0.00169 0.0024,1.6409983 -0.117998,1.721e-4 0.0018,1.2389989 0.118,-1.724e-4 0.0018,1.2389989 -0.118,1.715e-4 0.0018,1.2389989 0.118,-1.724e-4 0.0018,1.2389989 z"
       id="top_outsideCutPath"
       stroke="#FF0000"
       stroke-width="0.1"
       style="fill:none;stroke:#ff0000;stroke-width:0.0003937;stroke-dasharray:none;stroke-opacity:1"
       vector-effect="non-scaling-stroke" />
    <path
       d="m -0.65533019,10.111107 v 0.76 h 0.118 v 1.239 h -0.118 v 1.239 h 0.118 v 1.239 h -0.118 v 0.759 H 1.1036698 v -0.118 h 1.24 v 0.118 h 1.239 v -0.118 h 1.239 v 0.118 h 1.239 0.52 v -0.759 h -0.118 v -1.239 h 0.118 v -1.239 h -0.118 v -1.239 h 0.118 v -0.76 h -1.759 v 0.118 h -1.239 v -0.118 h -1.239 v 0.118 h -1.24 v -0.118 h -1.23899999 z"
       id="back_outsideCutPath"
       stroke="#FF0000"
       stroke-width="0.1"
       style="fill:none;stroke:#ff0000;stroke-width:0.0003937;stroke-dasharray:none;stroke-opacity:1"
       vector-effect="non-scaling-stroke" />
    <path
       d="m 6.8236698,10.111107 v 0.76 h -0.118 v 1.239 h 0.118 v 1.239 h -0.118 v 1.239 h 0.118 v 0.759 h 1.163 v -0.118 h 1.239 v 0.118 H 10.46567 v -0.118 h 1.238 v 0.118 h 1.24 v -0.118 h 1.238 v 0.118 h 1.24 v -0.118 h 1.239 v 0.118 h 1.163 v -0.759 h 0.118 v -1.239 h -0.118 v -1.239 h 0.118 v -1.239 h -0.118 v -0.76 h -1.163 v 0.118 h -1.239 v -0.118 h -1.24 v 0.118 h -1.238 v -0.118 h -1.24 v 0.118 h -1.238 v -0.118 H 9.2256698 v 0.118 h -1.239 v -0.118 z"
       id="right_outsideCutPath"
       stroke="#FF0000"
       stroke-width="0.1"
       style="fill:none;fill-opacity:0;stroke:#ff0000;stroke-width:0.0003937;stroke-dasharray:none;stroke-opacity:1"
       vector-effect="non-scaling-stroke" />
    <path
       d="m -0.66987578,9.7649035 1.16399796,-0.00172 1.7233e-4,0.118 1.23899899,-0.00182 -1.724e-4,-0.118 1.238999,-0.00182 1.724e-4,0.118 1.238998,-0.00182 -1.714e-4,-0.118 1.238998,-0.00182 1.723e-4,0.118 1.238999,-0.00182 -1.723e-4,-0.118 1.238999,-0.00182 1.723e-4,0.117999 1.238998,-0.00182 -1.724e-4,-0.118 1.163,-0.00173 -0.0024,-1.641998 0.118,-1.723e-4 -0.0018,-1.2389989 -0.118,1.723e-4 -0.0018,-1.2389989 0.118001,-1.714e-4 -0.0018,-1.2389991 -0.118,1.721e-4 -0.0018,-1.2389986 -5.84e-4,-0.4019996 -1.1629997,0.0017 -1.713e-4,-0.1179998 -1.238999,0.0018 1.723e-4,0.1179999 -1.238999,0.0018 -1.723e-4,-0.1179998 -1.238999,0.0018 1.723e-4,0.1179999 -1.238999,0.0018 -1.713e-4,-0.1179999 -1.238999,0.0018 1.724e-4,0.1179999 -1.238999,0.0018 -1.723e-4,-0.1179999 -1.238998,0.0018 1.7133e-4,0.1179999 -1.16399897,0.00169 0.002432,1.6409983 -0.11799999,1.722e-4 0.001825,1.2389989 0.118,-1.723e-4 0.001825,1.238999 -0.118,1.713e-4 0.001825,1.238999 0.11799899,-1.724e-4 0.001825,1.2389989 z"
       id="bottom_outsideCutPath"
       stroke="#FF0000"
       stroke-width="0.1"
       style="fill:none;stroke:#ff0000;stroke-width:0.0003937;stroke-dasharray:none;stroke-opacity:1"
       vector-effect="non-scaling-stroke" />
    <g
       id="g34678"
       style="stroke:#ff0000;stroke-width:0.0003937;stroke-dasharray:none;stroke-opacity:1">
      <path
         id="rect9794"
         style="fill:none;fill-opacity:0;stroke:#ff0000;stroke-width:0.0003937;stroke-dasharray:none;stroke-opacity:1"
         d="m 7.2834092,15.997618 v 3.936931 H 10.03223 v 0.248047 h 0.498576 v -0.248047 h 3.190063 v -3.936931 z" />
    </g>
    <circle
       style="fill:none;fill-opacity:0;stroke:#ff0000;stroke-width:0.0003937;stroke-dasharray:none;stroke-opacity:1"
       id="path23890"
       cx="15.875577"
       cy="18.090107"
       r="1.5" />
    <text
       xml:space="preserve"
       transform="matrix(0.01041667,0,0,0.01041667,-1.1675838,2.2669421)"
       id="text35464"
       style="white-space:pre;shape-inside:url(#rect35466);display:inline;fill:none;fill-opacity:0;stroke:#ff0000;stroke-width:0.03779527;stroke-dasharray:none;stroke-opacity:1" />
    <text
       xml:space="preserve"
       transform="matrix(0.01041667,0,0,0.01041667,-1.1675838,2.2669421)"
       id="text35470"
       style="white-space:pre;shape-inside:url(#rect35472);display:inline;fill:none;fill-opacity:0;stroke:#ff0000;stroke-width:0.03779527;stroke-dasharray:none;stroke-opacity:1" />
  </g>
  <text
     xml:space="preserve"
     style="font-size:2.2709px;fill:none;fill-opacity:0;stroke:#000000;stroke-width:0.125;stroke-dasharray:none;stroke-opacity:1"
     x="22.399771"
     y="3.760901"
     id="text37003"
     transform="scale(0.70377176,1.4209152)"><tspan
       sodipodi:role="line"
       id="tspan37001"
       style="stroke:#000000;stroke-width:0.125;stroke-dasharray:none;stroke-opacity:1"
       x="22.399771"
       y="3.760901">MWR</tspan><tspan
       sodipodi:role="line"
       style="stroke:#000000;stroke-width:0.125;stroke-dasharray:none;stroke-opacity:1"
       x="22.399771"
       y="6.5995259"
       id="tspan37005" /></text>
  <text
     xml:space="preserve"
     transform="scale(0.01041667)"
     id="text37007"
     style="white-space:pre;shape-inside:url(#rect37009);display:inline;fill:none;fill-opacity:0;stroke:#ff0000;stroke-width:0.03779527;stroke-dasharray:none;stroke-opacity:1" />
</svg>
