<?xml version="1.0" encoding="UTF-8" standalone="no"?>
<svg
   width="32in"
   height="20in"
   viewBox="0 0 31.999999 20"
   version="1.1"
   preserveAspectRatio="xMidYMid"
   id="svg37"
   sodipodi:docname="editted.svg"
   inkscape:version="1.2.2 (732a01da63, 2022-12-09)"
   xmlns:inkscape="http://www.inkscape.org/namespaces/inkscape"
   xmlns:sodipodi="http://sodipodi.sourceforge.net/DTD/sodipodi-0.dtd"
   xmlns:xlink="http://www.w3.org/1999/xlink"
   xmlns="http://www.w3.org/2000/svg"
   xmlns:svg="http://www.w3.org/2000/svg">
  <defs
     id="defs41">
    <rect
       x="1327.3625"
       y="231.0318"
       width="219.15547"
       height="128.12149"
       id="rect37009" />
    <rect
       x="1375.1188"
       y="217.19288"
       width="570.45841"
       height="310.08863"
       id="rect35472" />
    <rect
       x="1375.1188"
       y="211.95932"
       width="47.10207"
       height="41.868507"
       id="rect35466" />
    <color-profile
       name="Agfa-:-Swop-Standard"
       xlink:href="file:///C:/WINDOWS/system32/spool/drivers/color/RSWOP.icm"
       id="color-profile190" />
    <color-profile
       name="sRGB-IEC61966-2.1"
       xlink:href="file:///C:/WINDOWS/system32/spool/drivers/color/sRGB%20Color%20Space%20Profile.icm"
       id="color-profile192" />
  </defs>
  <sodipodi:namedview
     id="namedview39"
     pagecolor="#e4e4e4"
     bordercolor="#000000"
     borderopacity="1"
     inkscape:showpageshadow="0"
     inkscape:pageopacity="0"
     inkscape:pagecheckerboard="0"
     inkscape:deskcolor="#e4e4e4"
     inkscape:document-units="in"
     showgrid="false"
     inkscape:zoom="1.0808801"
     inkscape:cx="1291.5402"
     inkscape:cy="1537.6359"
     inkscape:window-width="1920"
     inkscape:window-height="1009"
     inkscape:window-x="1912"
     inkscape:window-y="-8"
     inkscape:window-maximized="1"
     inkscape:current-layer="svgGroup" />
  <g
     id="svgGroup"
     stroke-linecap="round"
     fill-rule="evenodd"
     font-size="12px"
     stroke="#000"
     stroke-width="0.25mm"
     fill="none"
     style="fill:none;stroke:#ff0000;stroke-width:0.0003937;stroke-dasharray:none;stroke-opacity:1"
     transform="translate(1.678674,-2.0693206)">
    <path
       d="m -0.65533019,15.472107 v 0.76 h 0.118 v 1.239 h -0.118 v 1.239 h 0.118 v 1.239 h -0.118 v 0.759 H 1.1036698 v -0.118 h 1.24 v 0.118 h 1.239 v -0.118 h 1.239 v 0.118 h 1.239 0.52 v -0.759 h -0.118 v -1.239 h 0.118 v -1.239 h -0.118 v -1.239 h 0.118 v -0.76 h -1.759 v 0.118 h -1.239 v -0.118 h -1.239 v 0.118 h -1.24 v -0.118 h -1.23899999 z"
       id="front_outsideCutPath"
       stroke="#FF0000"
       stroke-width="0.1"
       style="fill:none;stroke:#ff0000;stroke-width:0.0003937;stroke-dasharray:none;stroke-opacity:1"
       vector-effect="non-scaling-stroke" />
    <path
       d="m 6.8236698,15.472107 v 0.76 h -0.118 v 1.239 h 0.118 v 1.239 h -0.118 v 1.239 h 0.118 v 0.759 h 1.163 v -0.118 h 1.239 v 0.118 H 10.46567 v -0.118 h 1.238 v 0.118 h 1.24 v -0.118 h 1.238 v 0.118 h 1.24 v -0.118 h 1.239 v 0.118 h 1.163 v -0.759 h 0.118 v -1.239 h -0.118 v -1.239 h 0.118 v -1.239 h -0.118 v -0.76 h -1.163 v 0.118 h -1.239 v -0.118 h -1.24 v 0.118 h -1.238 v -0.118 h -1.24 v 0.118 h -1.238 v -0.118 H 9.2256698 v 0.118 h -1.239 v -0.118 z"
       id="left_outsideCutPath"
       stroke="#FF0000"
       stroke-width="0.1"
       style="fill:none;stroke:#ff0000;stroke-width:0.0003937;stroke-dasharray:none;stroke-opacity:1"
       vector-effect="non-scaling-stroke" />
    <path
       d="m 10.691112,9.7483359 1.163999,-0.00172 1.72e-4,0.1179999 1.238998,-0.00182 -1.72e-4,-0.118 1.239,-0.00182 1.72e-4,0.118 1.238999,-0.00182 -1.73e-4,-0.118 1.238999,-0.00182 1.71e-4,0.118 1.239,-0.00182 -1.73e-4,-0.118 1.238999,-0.00182 1.72e-4,0.117999 1.238998,-0.00182 -1.71e-4,-0.1180001 1.162999,-0.00173 -0.0024,-1.641998 0.117999,-1.724e-4 -0.0018,-1.238999 -0.118001,1.724e-4 -0.0018,-1.2389989 0.118001,-1.714e-4 -0.0018,-1.2389989 -0.118,1.72e-4 -0.0018,-1.2389987 -5.83e-4,-0.4019996 -1.162998,0.0017 -1.73e-4,-0.118 -1.238999,0.0018 1.72e-4,0.1179999 -1.238998,0.0018 -1.73e-4,-0.1179999 -1.238998,0.0018 1.71e-4,0.1179998 -1.238997,0.0018 -1.73e-4,-0.1179998 -1.238999,0.0018 1.72e-4,0.1179999 -1.238998,0.0018 -1.73e-4,-0.1179999 -1.238998,0.0018 1.72e-4,0.118 -1.163999,0.00169 0.0024,1.6409983 -0.117998,1.721e-4 0.0018,1.2389989 0.118,-1.724e-4 0.0018,1.2389989 -0.118,1.715e-4 0.0018,1.2389989 0.118,-1.724e-4 0.0018,1.2389989 z"
       id="top_outsideCutPath"
       stroke="#FF0000"
       stroke-width="0.1"
       style="fill:none;stroke:#ff0000;stroke-width:0.0003937;stroke-dasharray:none;stroke-opacity:1"
       vector-effect="non-scaling-stroke" />
    <path
       d="m -0.65533019,10.111107 v 0.76 h 0.118 v 1.239 h -0.118 v 1.239 h 0.118 v 1.239 h -0.118 v 0.759 H 1.1036698 v -0.118 h 1.24 v 0.118 h 1.239 v -0.118 h 1.239 v 0.118 h 1.239 0.52 v -0.759 h -0.118 v -1.239 h 0.118 v -1.239 h -0.118 v -1.239 h 0.118 v -0.76 h -1.759 v 0.118 h -1.239 v -0.118 h -1.239 v 0.118 h -1.24 v -0.118 h -1.23899999 z"
       id="back_outsideCutPath"
       stroke="#FF0000"
       stroke-width="0.1"
       style="fill:none;stroke:#ff0000;stroke-width:0.0003937;stroke-dasharray:none;stroke-opacity:1"
       vector-effect="non-scaling-stroke" />
    <path
       d="m 6.8236698,10.111107 v 0.76 h -0.118 v 1.239 h 0.118 v 1.239 h -0.118 v 1.239 h 0.118 v 0.759 h 1.163 v -0.118 h 1.239 v 0.118 H 10.46567 v -0.118 h 1.238 v 0.118 h 1.24 v -0.118 h 1.238 v 0.118 h 1.24 v -0.118 h 1.239 v 0.118 h 1.163 v -0.759 h 0.118 v -1.239 h -0.118 v -1.239 h 0.118 v -1.239 h -0.118 v -0.76 h -1.163 v 0.118 h -1.239 v -0.118 h -1.24 v 0.118 h -1.238 v -0.118 h -1.24 v 0.118 h -1.238 v -0.118 H 9.2256698 v 0.118 h -1.239 v -0.118 z"
       id="right_outsideCutPath"
       stroke="#FF0000"
       stroke-width="0.1"
       style="fill:none;fill-opacity:0;stroke:#ff0000;stroke-width:0.0003937;stroke-dasharray:none;stroke-opacity:1"
       vector-effect="non-scaling-stroke" />
    <path
       d="m -0.66987578,9.7649035 1.16399796,-0.00172 1.7233e-4,0.118 1.23899899,-0.00182 -1.724e-4,-0.118 1.238999,-0.00182 1.724e-4,0.118 1.238998,-0.00182 -1.714e-4,-0.118 1.238998,-0.00182 1.723e-4,0.118 1.238999,-0.00182 -1.723e-4,-0.118 1.238999,-0.00182 1.723e-4,0.117999 1.238998,-0.00182 -1.724e-4,-0.118 1.163,-0.00173 -0.0024,-1.641998 0.118,-1.723e-4 -0.0018,-1.2389989 -0.118,1.723e-4 -0.0018,-1.2389989 0.118001,-1.714e-4 -0.0018,-1.2389991 -0.118,1.721e-4 -0.0018,-1.2389986 -5.84e-4,-0.4019996 -1.1629997,0.0017 -1.713e-4,-0.1179998 -1.238999,0.0018 1.723e-4,0.1179999 -1.238999,0.0018 -1.723e-4,-0.1179998 -1.238999,0.0018 1.723e-4,0.1179999 -1.238999,0.0018 -1.713e-4,-0.1179999 -1.238999,0.0018 1.724e-4,0.1179999 -1.238999,0.0018 -1.723e-4,-0.1179999 -1.238998,0.0018 1.7133e-4,0.1179999 -1.16399897,0.00169 0.002432,1.6409983 -0.11799999,1.722e-4 0.001825,1.2389989 0.118,-1.723e-4 0.001825,1.238999 -0.118,1.713e-4 0.001825,1.238999 0.11799899,-1.724e-4 0.001825,1.2389989 z"
       id="bottom_outsideCutPath"
       stroke="#FF0000"
       stroke-width="0.1"
       style="fill:none;stroke:#ff0000;stroke-width:0.0003937;stroke-dasharray:none;stroke-opacity:1"
       vector-effect="non-scaling-stroke" />
    <g
       id="g34678"
       style="stroke:#ff0000;stroke-width:0.0003937;stroke-dasharray:none;stroke-opacity:1"
       transform="matrix(1.0060809,0,0,0.99999971,-0.04428881,5.1661774e-6)">
      <path
         id="rect9794"
         style="fill:none;fill-opacity:0;stroke:#ff0000;stroke-width:0.0003937;stroke-dasharray:none;stroke-opacity:1"
         d="m 7.2834092,15.997618 v 3.936931 H 10.03223 v 0.248047 h 0.498576 v -0.248047 h 3.190063 v -3.936931 z" />
    </g>
    <circle
       style="fill:none;fill-opacity:0;stroke:#ff0000;stroke-width:0.0003937;stroke-dasharray:none;stroke-opacity:1"
       id="path23890"
       cx="15.875577"
       cy="18.090107"
       r="1.5" />
    <text
       xml:space="preserve"
       transform="matrix(0.01041667,0,0,0.01041667,-1.1675838,2.2669421)"
       id="text35464"
       style="white-space:pre;shape-inside:url(#rect35466);display:inline;fill:none;fill-opacity:0;stroke:#ff0000;stroke-width:0.0377953;stroke-dasharray:none;stroke-opacity:1" />
    <text
       xml:space="preserve"
       transform="matrix(0.01041667,0,0,0.01041667,-1.1675838,2.2669421)"
       id="text35470"
       style="white-space:pre;shape-inside:url(#rect35472);display:inline;fill:none;fill-opacity:0;stroke:#ff0000;stroke-width:0.0377953;stroke-dasharray:none;stroke-opacity:1" />
  </g>
  <g
     aria-label="MWR "
     transform="scale(0.70377176,1.4209152)"
     id="text37003"
     style="font-size:2.2709px;fill:none;fill-opacity:0;stroke:#000000;stroke-width:0.125">
    <path
       style="color:#000000;fill:#000000;fill-opacity:1;stroke:none;-inkscape-stroke:none"
       d="m 22.558594,2.046875 v 1.7773438 h 0.330078 V 2.6191406 l 0.353515,0.75 h 0.210938 l 0.357422,-0.7519531 v 1.2070313 h 0.34375 V 3.7617188 2.046875 H 23.746094 L 23.359375,2.8808594 22.960937,2.046875 Z m 0.125,0.125 h 0.197265 l 0.480469,1.0039063 0.464844,-1.0039063 h 0.203125 v 1.5273438 h -0.09375 V 2.3378906 l -0.119141,-0.027344 -0.443359,0.9335937 h -0.05078 L 22.882812,2.3125 l -0.11914,0.025391 v 1.3613282 h -0.08008 z"
       id="path39975" />
    <path
       style="color:#000000;fill:#000000;fill-opacity:1;stroke:none;-inkscape-stroke:none"
       d="m 24.333984,2.046875 0.470703,1.7773438 h 0.337891 l 0.291016,-1.1757813 0.298828,1.1757813 h 0.34375 L 26.537109,2.046875 h -0.08008 -0.263672 L 25.896484,3.2363281 25.601562,2.046875 H 25.28125 L 24.988281,3.2265625 24.689453,2.046875 Z m 0.164063,0.125 h 0.09375 l 0.335937,1.3261719 h 0.121094 L 25.378906,2.171875 h 0.125 l 0.332031,1.3398438 h 0.121094 L 26.291016,2.171875 h 0.08594 L 25.980469,3.6992188 H 25.830078 L 25.494141,2.375 h -0.121094 l -0.328125,1.3242188 h -0.144531 z"
       id="path39977" />
    <path
       style="color:#000000;fill:#000000;fill-opacity:1;stroke:none;-inkscape-stroke:none"
       d="M 26.71875,2.046875 V 3.8242188 H 27.0625 V 3.1660156 h 0.21875 l 0.550781,0.6582032 h 0.451172 L 28.193359,3.7207031 27.617187,3.046875 c 0.0774,-0.04183 0.154629,-0.083128 0.205079,-0.1503906 h 0.002 c 0.06867,-0.0924 0.101562,-0.2083937 0.101562,-0.3378906 0,-0.095313 -0.01991,-0.1792446 -0.06055,-0.2480469 v -0.00195 c -0.03839,-0.066073 -0.09295,-0.1197942 -0.160156,-0.1621094 -0.05964,-0.037278 -0.126507,-0.064175 -0.199219,-0.078125 h -0.002 c -0.0721,-0.014263 -0.157953,-0.021484 -0.259765,-0.021484 z m 0.125,0.125 h 0.400391 c 0.09702,0 0.175691,0.0074 0.236328,0.019531 0.05964,0.011264 0.111908,0.031611 0.158203,0.060547 0.05214,0.032826 0.09104,0.072389 0.11914,0.1210938 0.02674,0.044751 0.04297,0.1056333 0.04297,0.1855469 0,0.1085333 -0.02703,0.1929677 -0.07813,0.2617187 -0.05242,0.069887 -0.122899,0.1230297 -0.21875,0.1601563 l -0.08398,0.033203 0.591797,0.6855469 H 27.890625 L 27.337891,3.0410156 H 26.9375 v 0.6582032 h -0.09375 z m 0.09375,0.064453 V 2.984375 h 0.285156 c 0.07303,0 0.137643,-0.00635 0.195313,-0.019531 0.06079,-0.014762 0.115902,-0.043342 0.160156,-0.083984 0.03949,-0.036856 0.07084,-0.080032 0.08984,-0.1289063 0.02034,-0.050846 0.02734,-0.1101818 0.02734,-0.1777343 10e-7,-0.054797 -0.0098,-0.1066479 -0.03125,-0.1523438 -0.02142,-0.047242 -0.05813,-0.087206 -0.103515,-0.1171875 C 27.521301,2.2782193 27.475702,2.2595299 27.425781,2.25 h -0.002 c -0.0486,-0.00973 -0.104471,-0.013672 -0.166016,-0.013672 z m 0.125,0.125 h 0.195312 c 0.05601,0 0.104372,0.00395 0.142579,0.011719 h 0.002 c 0.03658,0.00682 0.06405,0.01908 0.08789,0.035156 h 0.002 c 0.03007,0.019663 0.04753,0.041275 0.05859,0.066406 v 0.00195 c 0.01255,0.026748 0.01953,0.057832 0.01953,0.097656 0,0.056643 -0.0073,0.1003979 -0.01953,0.1308593 -0.01204,0.030962 -0.0296,0.058745 -0.05664,0.083984 -0.02819,0.025888 -0.06276,0.044316 -0.105469,0.054687 -0.04553,0.010244 -0.100835,0.015625 -0.166016,0.015625 H 27.0625 Z"
       id="path39979" />
  </g>
  <text
     xml:space="preserve"
     transform="scale(0.01041667)"
     id="text37007"
     style="white-space:pre;shape-inside:url(#rect37009);display:inline;fill:none;fill-opacity:0;stroke:#ff0000;stroke-width:0.0377953;stroke-dasharray:none;stroke-opacity:1" />
</svg>
