<svg width="25.958in" height="22.597in" viewBox="0 0 25.958 22.597" xmlns="http://www.w3.org/2000/svg" version="1.1" preserveAspectRatio="xMidYMid meet"><g id="svgGroup" stroke-linecap="round" fill-rule="evenodd" font-size="9pt" stroke="#000" stroke-width="0.25mm" fill="none" style="stroke:#000;stroke-width:0.25mm;fill:none"><path d="M 0 17.361 L 0 18.121 L 0.118 18.121 L 0.118 19.36 L 0 19.36 L 0 20.599 L 0.118 20.599 L 0.118 21.838 L 0 21.838 L 0 22.597 L 1.759 22.597 L 1.759 22.479 L 2.999 22.479 L 2.999 22.597 L 4.238 22.597 L 4.238 22.479 L 5.477 22.479 L 5.477 22.597 L 6.716 22.597 L 7.236 22.597 L 7.236 21.838 L 7.118 21.838 L 7.118 20.599 L 7.236 20.599 L 7.236 19.36 L 7.118 19.36 L 7.118 18.121 L 7.236 18.121 L 7.236 17.361 L 5.477 17.361 L 5.477 17.479 L 4.238 17.479 L 4.238 17.361 L 2.999 17.361 L 2.999 17.479 L 1.759 17.479 L 1.759 17.361 L 0.52 17.361 L 0 17.361 Z" id="front_outsideCutPath" stroke="#FF0000" stroke-width="0.1" style="stroke:#FF0000;stroke-width:0.1" vector-effect="non-scaling-stroke"/><path d="M 7.479 17.361 L 7.479 18.121 L 7.361 18.121 L 7.361 19.36 L 7.479 19.36 L 7.479 20.599 L 7.361 20.599 L 7.361 21.838 L 7.479 21.838 L 7.479 22.597 L 8.642 22.597 L 8.642 22.479 L 9.881 22.479 L 9.881 22.597 L 11.121 22.597 L 11.121 22.479 L 12.359 22.479 L 12.359 22.597 L 13.599 22.597 L 13.599 22.479 L 14.837 22.479 L 14.837 22.597 L 16.077 22.597 L 16.077 22.479 L 17.316 22.479 L 17.316 22.597 L 18.479 22.597 L 18.479 21.838 L 18.597 21.838 L 18.597 20.599 L 18.479 20.599 L 18.479 19.36 L 18.597 19.36 L 18.597 18.121 L 18.479 18.121 L 18.479 17.361 L 17.316 17.361 L 17.316 17.479 L 16.077 17.479 L 16.077 17.361 L 14.837 17.361 L 14.837 17.479 L 13.599 17.479 L 13.599 17.361 L 12.359 17.361 L 12.359 17.479 L 11.121 17.479 L 11.121 17.361 L 9.881 17.361 L 9.881 17.479 L 8.642 17.479 L 8.642 17.361 L 7.479 17.361 Z" id="left_outsideCutPath" stroke="#FF0000" stroke-width="0.1" style="stroke:#FF0000;stroke-width:0.1" vector-effect="non-scaling-stroke"/><path d="M 18.84 11.479 L 18.84 12.643 L 18.722 12.643 L 18.722 13.882 L 18.84 13.882 L 18.84 15.121 L 18.722 15.121 L 18.722 16.36 L 18.84 16.36 L 18.84 17.599 L 18.722 17.599 L 18.722 18.838 L 18.84 18.838 L 18.84 20.077 L 18.722 20.077 L 18.722 21.316 L 18.84 21.316 L 18.84 22.479 L 20.482 22.479 L 20.482 22.597 L 21.721 22.597 L 21.721 22.479 L 22.96 22.479 L 22.96 22.597 L 24.199 22.597 L 24.199 22.479 L 25.438 22.479 L 25.84 22.479 L 25.84 21.316 L 25.958 21.316 L 25.958 20.077 L 25.84 20.077 L 25.84 18.838 L 25.958 18.838 L 25.958 17.599 L 25.84 17.599 L 25.84 16.36 L 25.958 16.36 L 25.958 15.121 L 25.84 15.121 L 25.84 13.882 L 25.958 13.882 L 25.958 12.643 L 25.84 12.643 L 25.84 11.479 L 24.199 11.479 L 24.199 11.361 L 22.96 11.361 L 22.96 11.479 L 21.721 11.479 L 21.721 11.361 L 20.482 11.361 L 20.482 11.479 L 19.243 11.479 L 18.84 11.479 Z" id="top_outsideCutPath" stroke="#FF0000" stroke-width="0.1" style="stroke:#FF0000;stroke-width:0.1" vector-effect="non-scaling-stroke"/><path d="M 0 12 L 0 12.76 L 0.118 12.76 L 0.118 13.999 L 0 13.999 L 0 15.238 L 0.118 15.238 L 0.118 16.477 L 0 16.477 L 0 17.236 L 1.759 17.236 L 1.759 17.118 L 2.999 17.118 L 2.999 17.236 L 4.238 17.236 L 4.238 17.118 L 5.477 17.118 L 5.477 17.236 L 6.716 17.236 L 7.236 17.236 L 7.236 16.477 L 7.118 16.477 L 7.118 15.238 L 7.236 15.238 L 7.236 13.999 L 7.118 13.999 L 7.118 12.76 L 7.236 12.76 L 7.236 12 L 5.477 12 L 5.477 12.118 L 4.238 12.118 L 4.238 12 L 2.999 12 L 2.999 12.118 L 1.759 12.118 L 1.759 12 L 0.52 12 L 0 12 Z" id="back_outsideCutPath" stroke="#FF0000" stroke-width="0.1" style="stroke:#FF0000;stroke-width:0.1" vector-effect="non-scaling-stroke"/><path d="M 7.479 12 L 7.479 12.76 L 7.361 12.76 L 7.361 13.999 L 7.479 13.999 L 7.479 15.238 L 7.361 15.238 L 7.361 16.477 L 7.479 16.477 L 7.479 17.236 L 8.642 17.236 L 8.642 17.118 L 9.881 17.118 L 9.881 17.236 L 11.121 17.236 L 11.121 17.118 L 12.359 17.118 L 12.359 17.236 L 13.599 17.236 L 13.599 17.118 L 14.837 17.118 L 14.837 17.236 L 16.077 17.236 L 16.077 17.118 L 17.316 17.118 L 17.316 17.236 L 18.479 17.236 L 18.479 16.477 L 18.597 16.477 L 18.597 15.238 L 18.479 15.238 L 18.479 13.999 L 18.597 13.999 L 18.597 12.76 L 18.479 12.76 L 18.479 12 L 17.316 12 L 17.316 12.118 L 16.077 12.118 L 16.077 12 L 14.837 12 L 14.837 12.118 L 13.599 12.118 L 13.599 12 L 12.359 12 L 12.359 12.118 L 11.121 12.118 L 11.121 12 L 9.881 12 L 9.881 12.118 L 8.642 12.118 L 8.642 12 L 7.479 12 Z" id="right_outsideCutPath" stroke="#FF0000" stroke-width="0.1" style="stroke:#FF0000;stroke-width:0.1" vector-effect="non-scaling-stroke"/><path d="M 18.84 0.118 L 18.84 1.282 L 18.722 1.282 L 18.722 2.521 L 18.84 2.521 L 18.84 3.76 L 18.722 3.76 L 18.722 4.999 L 18.84 4.999 L 18.84 6.238 L 18.722 6.238 L 18.722 7.477 L 18.84 7.477 L 18.84 8.716 L 18.722 8.716 L 18.722 9.955 L 18.84 9.955 L 18.84 11.118 L 20.482 11.118 L 20.482 11.236 L 21.721 11.236 L 21.721 11.118 L 22.96 11.118 L 22.96 11.236 L 24.199 11.236 L 24.199 11.118 L 25.438 11.118 L 25.84 11.118 L 25.84 9.955 L 25.958 9.955 L 25.958 8.716 L 25.84 8.716 L 25.84 7.477 L 25.958 7.477 L 25.958 6.238 L 25.84 6.238 L 25.84 4.999 L 25.958 4.999 L 25.958 3.76 L 25.84 3.76 L 25.84 2.521 L 25.958 2.521 L 25.958 1.282 L 25.84 1.282 L 25.84 0.118 L 24.199 0.118 L 24.199 0 L 22.96 0 L 22.96 0.118 L 21.721 0.118 L 21.721 0 L 20.482 0 L 20.482 0.118 L 19.243 0.118 L 18.84 0.118 Z" id="bottom_outsideCutPath" stroke="#FF0000" stroke-width="0.1" style="stroke:#FF0000;stroke-width:0.1" vector-effect="non-scaling-stroke"/></g></svg>